<svg width="383" height="383" viewBox="0 0 383 383" fill="none" xmlns="http://www.w3.org/2000/svg">
<g filter="url(#filter0_d_190_22)">
<rect x="4" width="375" height="375" rx="25" fill="#1D2021"/>
</g>
<path d="M70.7168 109.983L70.6572 109.643C70.554 109.049 70.5 108.441 70.5 107.824C70.5 101.843 75.5983 96.7185 82.2344 96.7183H161.113L196.582 125.392L197.683 126.282H290.458C302.787 126.282 312.5 135.836 312.5 147.282V257.281C312.5 268.727 302.787 278.282 290.458 278.282H92.542C80.2135 278.282 70.5003 268.727 70.5 257.282V147.282C70.5 146.367 70.5617 145.465 70.6807 144.581L70.7168 144.315V109.983Z" stroke="#458588" stroke-width="8"/>
<circle cx="191.5" cy="202" r="46" stroke="#458588" stroke-width="8"/>
<path d="M183.341 215.188V214.023C183.341 210.803 183.606 208.237 184.136 206.324C184.686 204.411 185.481 202.877 186.523 201.722C187.564 200.547 188.833 199.477 190.33 198.511C191.523 197.754 192.583 196.987 193.511 196.21C194.458 195.415 195.206 194.562 195.756 193.653C196.305 192.744 196.58 191.712 196.58 190.557C196.58 189.439 196.314 188.455 195.784 187.602C195.254 186.75 194.525 186.097 193.597 185.642C192.688 185.169 191.674 184.932 190.557 184.932C189.439 184.932 188.388 185.187 187.403 185.699C186.438 186.21 185.642 186.939 185.017 187.886C184.411 188.814 184.098 189.941 184.08 191.267H171.011C171.068 187.29 171.987 184.032 173.767 181.494C175.566 178.956 177.943 177.081 180.898 175.869C183.852 174.638 187.11 174.023 190.67 174.023C194.572 174.023 198.038 174.629 201.068 175.841C204.117 177.053 206.513 178.843 208.256 181.21C209.998 183.578 210.869 186.475 210.869 189.903C210.869 192.157 210.491 194.146 209.733 195.869C208.975 197.593 207.915 199.117 206.551 200.443C205.206 201.75 203.625 202.943 201.807 204.023C200.386 204.856 199.203 205.727 198.256 206.636C197.328 207.545 196.627 208.587 196.153 209.761C195.68 210.917 195.443 212.337 195.443 214.023V215.188H183.341ZM189.619 233.824C187.574 233.824 185.822 233.104 184.364 231.665C182.924 230.225 182.214 228.483 182.233 226.438C182.214 224.43 182.924 222.716 184.364 221.295C185.822 219.856 187.574 219.136 189.619 219.136C191.57 219.136 193.284 219.856 194.761 221.295C196.239 222.716 196.987 224.43 197.006 226.438C196.987 227.801 196.627 229.042 195.926 230.159C195.244 231.277 194.345 232.167 193.227 232.83C192.129 233.492 190.926 233.824 189.619 233.824Z" fill="#458588"/>
<defs>
<filter id="filter0_d_190_22" x="0" y="0" width="383" height="383" filterUnits="userSpaceOnUse" color-interpolation-filters="sRGB">
<feFlood flood-opacity="0" result="BackgroundImageFix"/>
<feColorMatrix in="SourceAlpha" type="matrix" values="0 0 0 0 0 0 0 0 0 0 0 0 0 0 0 0 0 0 127 0" result="hardAlpha"/>
<feOffset dy="4"/>
<feGaussianBlur stdDeviation="2"/>
<feComposite in2="hardAlpha" operator="out"/>
<feColorMatrix type="matrix" values="0 0 0 0 0 0 0 0 0 0 0 0 0 0 0 0 0 0 0.25 0"/>
<feBlend mode="normal" in2="BackgroundImageFix" result="effect1_dropShadow_190_22"/>
<feBlend mode="normal" in="SourceGraphic" in2="effect1_dropShadow_190_22" result="shape"/>
</filter>
</defs>
</svg>
